<svg xmlns:dc="http://purl.org/dc/elements/1.1/" xmlns:cc="http://creativecommons.org/ns#" xmlns:rdf="http://www.w3.org/1999/02/22-rdf-syntax-ns#" xmlns:svg="http://www.w3.org/2000/svg" xmlns="http://www.w3.org/2000/svg" xmlns:sodipodi="http://sodipodi.sourceforge.net/DTD/sodipodi-0.dtd" xmlns:inkscape="http://www.inkscape.org/namespaces/inkscape" version="1.0" width="3407" height="1281" preserveAspectRatio="xMidYMid meet" sodipodi:docname="wl-logo-vector-raw.svg" inkscape:version="0.92.2 5c3e80d, 2017-08-06"><rect id="backgroundrect" width="100%" height="100%" x="0" y="0" fill="none" stroke="none" class="" style=""/>
  <metadata id="metadata5857">
    <rdf:RDF>
      <cc:Work rdf:about="">
        <dc:format>image/svg+xml</dc:format>
        <dc:type rdf:resource="http://purl.org/dc/dcmitype/StillImage"/>
        <dc:title/>
      </cc:Work>
    </rdf:RDF>
  </metadata>
  <defs id="defs5855"/>
  <sodipodi:namedview pagecolor="#ffffff" bordercolor="#666666" borderopacity="1" objecttolerance="10" gridtolerance="10" guidetolerance="10" inkscape:pageopacity="0" inkscape:pageshadow="2" inkscape:window-width="1936" inkscape:window-height="1083" id="namedview5853" showgrid="false" showguides="true" inkscape:guide-bbox="true" inkscape:measure-start="0,0" inkscape:measure-end="0,0" inkscape:lockguides="true" inkscape:zoom="1.6601637" inkscape:cx="297.31365" inkscape:cy="129.62515" inkscape:window-x="0" inkscape:window-y="0" inkscape:window-maximized="0" inkscape:current-layer="layer101">
    <sodipodi:guide position="1773.9815,1933.7037" orientation="0,1" id="guide5859" inkscape:locked="true"/>
    <sodipodi:guide position="2042.3148,1897.5" orientation="0,1" id="guide5861" inkscape:locked="true"/>
    <sodipodi:guide position="2553.4259,2214.8148" orientation="1,0" id="guide5863" inkscape:locked="true"/>
    <sodipodi:guide position="2596.0185,2242.5" orientation="1,0" id="guide5865" inkscape:locked="true"/>
    <sodipodi:guide position="2998.5185,2323.4259" orientation="1,0" id="guide5867" inkscape:locked="true"/>
    <sodipodi:guide position="3396.7593,2340.463" orientation="1,0" id="guide5869" inkscape:locked="true"/>
    <sodipodi:guide position="3224.2593,1279.9074" orientation="0,1" id="guide5871" inkscape:locked="true"/>
    <sodipodi:guide position="1211.7593,2560.8796" orientation="0,1" id="guide5873" inkscape:locked="true"/>
    <sodipodi:guide position="4165.2518,1618.8162" orientation="0,1" id="guide6688" inkscape:locked="true"/>
    <sodipodi:guide position="2868.6111,3047.5" orientation="1,0" id="guide6753" inkscape:locked="true"/>
  </sodipodi:namedview>
  
<g class="currentLayer" style=""><title>Layer 1</title><g id="layer101" fill="#fed136" stroke="none" class="">
    <path d="m448.30584716796875,1264.89208984375 c-43,-19 -67,-40 -94,-84 c-25,-41 -28,-51 -91,-275 c-1.713,-19.54 -79.308,-241.2527 -68.1001,-242.656 c370.8061,0.15600000000000003 0,0 370.8061,0.15600000000000003 c0,0 22.294,112.5 27.294,113.5 c64,-113.5 0,0 64,-113.5 c366.9824,0 0,0 366.9824,0 c-63.2272,120.8694 -151.0633,269.3141 -225.9824,401.5 c-67,120 -112,173 -164,197 c-50,23 -138,24 -186,3 z" id="path5838" inkscape:connector-curvature="0" sodipodi:nodetypes="ccccccccccc"/>
    <path d="m1654.3243471679689,1280.98468984375 c0,-617.5926 0,0 -0.0005,-617.5926 c0,0 0.0005,0 57.9815,119.5 l46.0653,-119.5 c359.4166,-0.5 529.6204,0.5 696.6945,0 c0,278.6838 0,278.6838 0,278.6838 l951.7583,0 L3167.3058471679688,1280.98468984375 c-591.6911,0 -346.9845,0 -1110.4815,-0.00009999999999999999 v-454.3982 c0,0 -100.5189,326.3056 -117.5189,357.3056 c-9,16 -36,43 -59,60 c-37,27 -54,32 -116,35 c-57,3 -49.9352,2.0926 -109.9815,2.0926 z" id="path5840" inkscape:connector-curvature="0" sodipodi:nodetypes="ccccccccccccccc"/>
    <path d="m1269.4000471679688,663.39208984375 h342.3317 c0,576.5588 0,0 0,576.5588 c-342.3317,-576.5588 0,0 -342.3317,-576.5588 z" id="path5842" inkscape:connector-curvature="0" sodipodi:nodetypes="cccc"/>
    <path d="m180.81174716796886,627.18838984375 c-180.81172,-627.1759 0,0 -180.81172,-627.1759 h384.02352 l170.0148,627.6208 z" id="path5844" inkscape:connector-curvature="0" sodipodi:nodetypes="ccccc"/>
    <path d="m669.1294471679687,627.18838984375 c287.5679,-527.8936 0,0 287.5679,-527.8936 C965.7326471679687,83.81238984375 1033.3058471679688,20.89208984375 1066.3058471679688,10.89208984375 c42,-11 114,-13 161,-4 c54,11 121,82 175,185 l209.4259,435.2963 c-363.1788,0 0,0 -363.1788,0 L1147.3058471679688,450.89208984375 L1043.4235471679688,627.18838984375 c-374.2941,0 0,0 -374.2941,0 z" id="path5846" inkscape:connector-curvature="0" sodipodi:nodetypes="cccccccccc"/>
    <path d="m1764.3706471679689,627.18838984375 l161.4002,-627.1759 c287.7223,-0.028000000000000004 283.8411,0 529.2943,0 c0,627.1759 0,0 0,627.1759 z" id="path5848" inkscape:connector-curvature="0" sodipodi:nodetypes="ccccc"/>
  </g></g></svg>